<svg xmlns="http://www.w3.org/2000/svg" version="1.1" xmlns:xlink="http://www.w3.org/1999/xlink" width="1500" height="440" viewBox="0 0 1500 440"><svg xml:space="preserve" width="1500" height="440" data-version="2" data-id="lg_exgrXDZ5whL17G9x5M" viewBox="0 0 558 440" x="0" y="0"><rect width="100%" height="100%" fill="transparent"></rect><g transform="translate(38.94 238.918)"><linearGradient id="a" x1="-.024" x2="6.022" y1="0" y2="0" gradientUnits="objectBoundingBox"><stop offset="0%" stop-color="#ffa62e"></stop><stop offset="100%" stop-color="#f71b3d"></stop></linearGradient><path fill="url(#a)" d="M144.63 450.24H127.9q-.59 0-.59-.74l.3-101.67q0-.6.59-.6h18.05q.6 0 1.04.6l13.47 19.53 13.47-19.53q.44-.6 1.03-.6h18.21q.59 0 .59.6l.29 101.67q0 .74-.59.74h-16.72q-.59 0-.59-.74l-.15-75.48-15.54 22.5-15.39-22.5-.15 75.48q0 .74-.59.74" transform="translate(-160.83 -398.735)"></path></g><g transform="translate(109.354 238.918)"><linearGradient id="b" x1="-.57" x2="2.355" y1="0" y2="0" gradientUnits="objectBoundingBox"><stop offset="0%" stop-color="#ffa62e"></stop><stop offset="100%" stop-color="#f71b3d"></stop></linearGradient><path fill="url(#b)" d="m201.75 449.5 18.36-101.67q.14-.6.74-.6h21.46q.59 0 .74.6l17.61 101.67q.15.74-.59.74h-16.43q-.59 0-.74-.74l-1.63-10.8h-20.13l-1.63 10.8q-.14.74-.74.74h-16.42q-.6 0-.6-.74m29.01-68.23-6.66 41.59h14.21l-6.07-41.59-.89-5.47z" transform="translate(-231.244 -398.735)"></path></g><g transform="translate(177.175 238.918)"><linearGradient id="c" x1="-1.052" x2=".577" y1="0" y2="0" gradientUnits="objectBoundingBox"><stop offset="0%" stop-color="#ffa62e"></stop><stop offset="100%" stop-color="#f71b3d"></stop></linearGradient><path fill="url(#c)" d="M287.3 450.24h-16.73q-.59 0-.59-.74l.15-101.67q0-.6.74-.6h16.43q.74 0 .74.6l-.15 40.25h22.2v-40.25q0-.6.59-.6h16.43q.74 0 .74.6l.3 101.67q0 .74-.74.74h-16.58q-.74 0-.74-.74v-43.51h-22.2v43.51q0 .74-.59.74" transform="translate(-299.065 -398.735)"></path></g><g transform="translate(251.915 238.918)"><linearGradient id="d" x1="-1.494" x2="-.579" y1="0" y2="0" gradientUnits="objectBoundingBox"><stop offset="0%" stop-color="#ffa62e"></stop><stop offset="100%" stop-color="#f71b3d"></stop></linearGradient><path fill="url(#d)" d="M357.6 450.24h-16.73q-.59 0-.59-.74l.3-101.67q0-.6.59-.6h18.06q.59 0 1.03.6l13.47 19.53 13.47-19.53q.44-.6 1.03-.6h18.21q.59 0 .59.6l.3 101.67q0 .74-.6.74h-16.72q-.59 0-.59-.74l-.15-75.48-15.54 22.5-15.39-22.5-.15 75.48q0 .74-.59.74" transform="translate(-373.805 -398.735)"></path></g><g transform="translate(325.175 239.658)"><linearGradient id="e" x1="-2.023" x2="-1.47" y1="0" y2="0" gradientUnits="objectBoundingBox"><stop offset="0%" stop-color="#ffa62e"></stop><stop offset="100%" stop-color="#f71b3d"></stop></linearGradient><path fill="url(#e)" d="M446.99 451.72q-7.84 0-14.5-4.07t-10.59-10.88q-3.92-6.8-3.92-14.94l.3-74q0-.6.59-.6h16.58q.59 0 .59.6v74q0 5.03 3.18 8.51 3.18 3.47 7.77 3.47 4.74 0 7.92-3.47 3.18-3.48 3.18-8.51v-74q0-.6.59-.6h16.58q.59 0 .59.6l.3 74q0 8.28-3.93 15.09-3.92 6.81-10.5 10.81-6.59 3.99-14.73 3.99" transform="translate(-447.065 -399.475)"></path></g><g transform="translate(395.03 238.825)"><linearGradient id="f" x1="-2.533" x2="-2.231" y1="0" y2="0" gradientUnits="objectBoundingBox"><stop offset="0%" stop-color="#ffa62e"></stop><stop offset="100%" stop-color="#f71b3d"></stop></linearGradient><path fill="url(#f)" d="m515.07 450.09-26.49.15q-.74 0-.74-.74l.29-101.67q0-.6.6-.6l27.67-.14q8.14-.15 14.88 3.84 6.73 4 10.73 10.73 3.99 6.74 3.99 14.88v42.47q0 8.59-4.14 15.62-4.15 7.03-11.1 11.17-6.96 4.15-15.69 4.29m-9.03-85.1-.15 67.05h9.18q5.48 0 9.25-3.85 3.77-3.85 3.77-9.18v-42.62q0-4.74-3.47-8.21-3.48-3.48-8.22-3.33z" transform="translate(-516.92 -398.643)"></path></g><g transform="translate(463.11 239.658)"><linearGradient id="g" x1="-3.053" x2="-2.928" y1="0" y2="0" gradientUnits="objectBoundingBox"><stop offset="0%" stop-color="#ffa62e"></stop><stop offset="100%" stop-color="#f71b3d"></stop></linearGradient><path fill="url(#g)" d="M584.93 451.72q-7.85 0-14.51-4.07t-10.58-10.88q-3.92-6.8-3.92-14.94l.29-74q0-.6.6-.6h16.57q.59 0 .59.6v74q0 5.03 3.19 8.51 3.18 3.47 7.77 3.47 4.73 0 7.91-3.47 3.19-3.48 3.19-8.51v-74q0-.6.59-.6h16.57q.6 0 .6.6l.29 74q0 8.28-3.92 15.09-3.92 6.81-10.51 10.81-6.58 3.99-14.72 3.99" transform="translate(-585 -399.475)"></path></g><g transform="translate(528.01 238.918)"><linearGradient id="h" x1="-3.625" x2="-3.619" y1="0" y2="0" gradientUnits="objectBoundingBox"><stop offset="0%" stop-color="#ffa62e"></stop><stop offset="100%" stop-color="#f71b3d"></stop></linearGradient><path fill="url(#h)" d="M673.73 450.24h-47.81q-.59 0-.59-.74l.15-101.53q0-.74.74-.74h16.43q.74 0 .74.74l-.15 84.07h30.49q.74 0 .74.74v16.72q0 .74-.74.74" transform="translate(-649.9 -398.735)"></path></g><g transform="translate(119.6 382.748)"><linearGradient id="i" x1="-1.237" x2="5.728" y1="-1" y2="-1" gradientUnits="objectBoundingBox"><stop offset="0%" stop-color="#ffa62e"></stop><stop offset="100%" stop-color="#f71b3d"></stop></linearGradient><path fill="url(#i)" d="M229.73 594.07H213q-.59 0-.59-.74l.15-101.68q0-.59.74-.59h16.43q.74 0 .74.59l-.15 40.26h22.2v-40.26q0-.59.59-.59h16.43q.74 0 .74.59l.29 101.68q0 .74-.74.74h-16.57q-.74 0-.74-.74v-43.51h-22.2v43.51q0 .74-.59.74" transform="translate(-241.49 -542.565)"></path></g><g transform="translate(185.28 382.748)"><linearGradient id="j" x1="-1.178" x2="2.017" y1="-1" y2="-1" gradientUnits="objectBoundingBox"><stop offset="0%" stop-color="#ffa62e"></stop><stop offset="100%" stop-color="#f71b3d"></stop></linearGradient><path fill="url(#j)" d="m277.68 593.33 18.35-101.68q.15-.59.74-.59h21.46q.59 0 .74.59l17.61 101.68q.15.74-.59.74h-16.43q-.59 0-.74-.74l-1.63-10.8h-20.12l-1.63 10.8q-.15.74-.74.74h-16.43q-.59 0-.59-.74m29.01-68.23-6.66 41.59h14.2l-6.06-41.59-.89-5.47z" transform="translate(-307.17 -542.565)"></path></g><g transform="translate(249.175 382.748)"><linearGradient id="k" x1="-1.491" x2=".38" y1="-1" y2="-1" gradientUnits="objectBoundingBox"><stop offset="0%" stop-color="#ffa62e"></stop><stop offset="100%" stop-color="#f71b3d"></stop></linearGradient><path fill="url(#k)" d="M371.07 595.55q-8 0-14.58-4.07-6.59-4.07-10.51-10.8-3.92-6.74-3.92-14.88v-6.81q0-.74.74-.74h16.57q.6 0 .6.74v6.81q0 4.89 3.25 8.36 3.26 3.48 7.85 3.48 4.58 0 7.84-3.55t3.26-8.29q0-5.47-7.11-9.47-2.37-1.33-7.4-4.14-5.03-2.82-9.47-5.33-8.14-4.74-12.06-11.92-3.92-7.17-3.92-16.2 0-8.29 3.99-14.88 4-6.58 10.58-10.43 6.59-3.85 14.29-3.85 7.84 0 14.43 3.92 6.58 3.93 10.5 10.51 3.93 6.59 3.93 14.73v12.13q0 .6-.6.6h-16.57q-.59 0-.59-.6l-.15-12.13q0-5.18-3.26-8.44-3.25-3.25-7.69-3.25-4.59 0-7.85 3.47-3.25 3.48-3.25 8.22 0 4.88 2.07 8.14 2.07 3.25 7.55 6.21.74.45 2.88 1.56 2.15 1.11 4.66 2.51 2.52 1.41 4.52 2.45 2 1.03 2.44 1.33 7.4 4.14 11.69 10.14 4.29 5.99 4.29 14.72 0 8.44-3.92 15.17-3.92 6.74-10.51 10.66-6.58 3.92-14.57 3.92" transform="translate(-371.065 -542.565)"></path></g><g transform="translate(310.745 382.748)"><linearGradient id="l" x1="-1.883" x2="-.713" y1="-1" y2="-1" gradientUnits="objectBoundingBox"><stop offset="0%" stop-color="#ffa62e"></stop><stop offset="100%" stop-color="#f71b3d"></stop></linearGradient><path fill="url(#l)" d="M432.63 595.55q-7.99 0-14.57-4.07-6.59-4.07-10.51-10.8-3.92-6.74-3.92-14.88v-6.81q0-.74.74-.74h16.57q.59 0 .59.74v6.81q0 4.89 3.26 8.36 3.26 3.48 7.84 3.48 4.59 0 7.85-3.55 3.25-3.55 3.25-8.29 0-5.47-7.1-9.47-2.37-1.33-7.4-4.14-5.03-2.82-9.47-5.33-8.14-4.74-12.06-11.92-3.93-7.17-3.93-16.2 0-8.29 4-14.88 4-6.58 10.58-10.43 6.59-3.85 14.28-3.85 7.85 0 14.43 3.92 6.59 3.93 10.51 10.51 3.92 6.59 3.92 14.73v12.13q0 .6-.59.6h-16.57q-.6 0-.6-.6l-.14-12.13q0-5.18-3.26-8.44-3.26-3.25-7.7-3.25-4.58 0-7.84 3.47-3.26 3.48-3.26 8.22 0 4.88 2.08 8.14 2.07 3.25 7.54 6.21.74.45 2.89 1.56 2.15 1.11 4.66 2.51 2.52 1.41 4.52 2.45 1.99 1.03 2.44 1.33 7.4 4.14 11.69 10.14 4.29 5.99 4.29 14.72 0 8.44-3.92 15.17-3.92 6.74-10.51 10.66-6.58 3.92-14.58 3.92" transform="translate(-432.635 -542.565)"></path></g><g transform="translate(372.941 382.748)"><linearGradient id="m" x1="-2.338" x2="-1.578" y1="-1" y2="-1" gradientUnits="objectBoundingBox"><stop offset="0%" stop-color="#ffa62e"></stop><stop offset="100%" stop-color="#f71b3d"></stop></linearGradient><path fill="url(#m)" d="m465.34 593.33 18.35-101.68q.15-.59.74-.59h21.46q.6 0 .74.59l17.62 101.68q.14.74-.6.74h-16.42q-.6 0-.74-.74l-1.63-10.8h-20.13l-1.63 10.8q-.15.74-.74.74h-16.43q-.59 0-.59-.74m29.01-68.23-6.66 41.59h14.21l-6.07-41.59-.89-5.47z" transform="translate(-494.831 -542.565)"></path></g><g transform="translate(436.62 382.748)"><linearGradient id="n" x1="-2.745" x2="-2.298" y1="-1" y2="-1" gradientUnits="objectBoundingBox"><stop offset="0%" stop-color="#ffa62e"></stop><stop offset="100%" stop-color="#f71b3d"></stop></linearGradient><path fill="url(#n)" d="M546.74 594.07h-14.8q-1.18 0-1.18-1.04l-.15-100.78q0-1.19 1.18-1.19h13.32l25.02 58.31-.74-57.12q0-1.19 1.33-1.19h14.65q.89 0 .89 1.19l.15 100.93q0 .89-.74.89h-13.03l-25.6-54.46 1.03 53.28q0 1.18-1.33 1.18" transform="translate(-558.51 -542.565)"></path></g><path fill="#ff4136" d="M346.129 88.213h-49.182q.913-2.469 1.48-5.11a12.345 12.345 0 0 0 10.667-12.173v-27.9a29.134 29.134 0 0 0-15.678-25.924l-1.407-1.729a29.628 29.628 0 0 0-23.135-11.11h-4.222c-24.517 0-44.442 19.925-44.442 44.442V70.93a12.345 12.345 0 0 0 10.641 12.172 34.566 34.566 0 0 0 16.518 22.666v2.543l-12.74 1.975a30.616 30.616 0 0 0-24.443 21.011l-8.148 26.048H343.66v-4.938h-7.407v-4.938h9.876a7.407 7.407 0 0 0 7.407-7.407V95.62a7.407 7.407 0 0 0-7.407-7.407m2.469 7.407v37.035h-64.194V95.62a2.469 2.469 0 0 1 2.469-2.469h59.256a2.469 2.469 0 0 1 2.469 2.469m-107.97 25.974 3.087-7.728 4.444-.667 11.555 34.714-14.197-11.011 5.136-10.296zm15.308-.691q2.025.962 4.617 1.481l-2.666 4.395zm8.716 4.197 4.691 7.851-4.691 14.123-4.691-14.123zm6.765 1.679-2.642-4.42q2.593-.494 4.593-1.481zm5.58-16.74-.148.42c-.74 1.9-3.605 7.382-12.197 7.382-8.592 0-11.456-5.456-12.197-7.358l-.148-.444v-1.926a34.566 34.566 0 0 0 24.69.05zm2.469 8.197v21.974l-9.876 7.703zm-9.876-54.713h-9.876a7.407 7.407 0 0 0-7.407-7.407h-7.53c11.678-6.444 24.69-9.876 38.17-9.876l.247.148a16.295 16.295 0 0 0 11.086 7.086v3.086a7.407 7.407 0 0 0-2.469-.444h-14.814a7.407 7.407 0 0 0-7.407 7.407m-34.566 2.469v-2.469q0-.988.667-1.63l.913-.666a2.469 2.469 0 0 1 .889-.173h14.814a2.469 2.469 0 0 1 2.469 2.469v4.938a2.469 2.469 0 0 1-2.469 2.469h-14.814a2.469 2.469 0 0 1-2.469-2.469zm39.504-2.469a2.469 2.469 0 0 1 2.469-2.469h14.814a2.469 2.469 0 0 1 2.469 2.469v4.938a2.469 2.469 0 0 1-2.469 2.469h-14.814a2.469 2.469 0 0 1-2.469-2.469zm24.567 14.394q.098-1.037.123-2.049v-11.9a7.407 7.407 0 0 1 4.938 6.962 7.407 7.407 0 0 1-5.061 6.987M264.652 9.205h4.222c7.555 0 14.567 3.383 19.283 9.259l2.074 2.592.494.247a24.196 24.196 0 0 1 13.431 21.727v18.098a12.345 12.345 0 0 0-4.938-2.296V48.709h-2.469a11.357 11.357 0 0 1-9.456-5.061l-1.58-2.346h-2.766a83.946 83.946 0 0 0-48.17 15.184l-.79.568q-.74.395-1.407.988l-.939.642a12.19 12.19 0 0 0-6.493 2.42V48.708c0-21.777 17.727-39.504 39.504-39.504M225.148 70.93a7.407 7.407 0 0 1 4.938-6.963v11.901q.025 1.037.099 2.05a7.407 7.407 0 0 1-5.037-6.988m9.876 4.938v-.444q1.16.42 2.469.444h14.814a7.407 7.407 0 0 0 7.407-7.407h9.876a7.407 7.407 0 0 0 7.407 7.407h14.814q1.309 0 2.469-.444v.444c0 4.271-.988 8.493-2.74 12.345h-4.667a7.407 7.407 0 0 0-7.407 7.407v5.9a29.628 29.628 0 0 1-44.442-25.652m-20.122 56.91a25.678 25.678 0 0 1 20.492-17.628l2.642-.395-3.679 9.21 9.704 4.863-4.74 9.481 18.146 14.098h-24.591l2.123-16.987-4.888-.592-2.222 17.579h-19.11zm56.91 19.629 9.555-7.407c1.358 1.481 3.309 2.469 5.481 2.469h9.876v4.938h-24.887m59.478 0h-29.628v-4.938h29.628zm14.814-9.876h-59.256a2.469 2.469 0 0 1-2.469-2.469v-2.469h64.194v2.469a2.469 2.469 0 0 1-2.469 2.469"></path><path fill="#ff4136" d="M276.997 88.213h-4.938a2.469 2.469 0 0 1-2.469 2.469h-9.876a2.469 2.469 0 0 1-2.469-2.469h-4.938a7.407 7.407 0 0 0 7.407 7.407h9.876a7.407 7.407 0 0 0 7.407-7.407m12.345 34.566h4.938v4.938h-4.938zm9.876 0h24.69v4.938h-24.69z"></path></svg></svg>